<svg version="1" xmlns="http://www.w3.org/2000/svg" width="933.333" height="933.333" viewBox="0 0 700.000000 700.000000"><path d="M426.9 111.3c-.2.3-4.2.7-8.8 1.1-4.6.3-8.7.8-9.1 1.1-.3.2-2.2.7-4.1 1-8.7 1.4-14 2.8-31.4 8-4.4 1.3-14.7 4-23 5.9-16.2 3.8-52.7 15.8-67 22.1-1.6.7-9.1 3.9-16.5 7.1-11.1 4.7-27.8 12.9-45.4 22.2-6.5 3.4-27 16.4-36.2 22.9-38.4 27.3-62.8 55.3-82.7 95-11.2 22.2-21.8 53.5-24.1 70.7-.4 2.7-.9 5.2-1 5.5-.4.7-1.5 10.6-2.5 22.1-1.1 13.5-.5 39.9 1.3 52 .2.8.6 4 1.1 7 .4 3 .9 6.4 1.1 7.5.2 1.1.6 3.1.9 4.5 4.8 24.9 15.4 56.3 25.3 75 8.5 16.1 17.1 27.8 28.3 39 9.6 9.4 9.1 9.1 18 13.2 20.7 9.8 35.3 9.4 57.9-1.4 5.6-2.8 30.5-18.6 61.1-39 78.2-51.9 76.5-50.9 160.9-100.9 9.6-5.7 18.4-10.9 19.5-11.5 3.4-1.9 43.2-25.3 46.5-27.4 3.8-2.3 19.5-11.5 20.3-11.9 2-.8 63-37.8 72.5-43.9 20.3-13.1 28.2-20 36.3-31.5 8.7-12.5 12-27.3 11.4-51.7-.3-13.7-.8-17.1-3.8-29-1.9-7.4-4.9-17.1-6.7-21.5-3.1-7.8-10.7-23.1-12.9-25.7-.6-.7-3.8-4.9-7.2-9.3-7.2-9.3-26.7-29-35.5-35.7-27.5-21.1-58.8-34.7-91.4-39.8-4.1-.6-8.6-1.4-10-1.7-3.1-.6-42.4-1.5-43.1-1zm32.6 37.6c4.4.6 8.6 1.3 9.5 1.6.8.2 2.6.6 4 .9 10.6 1.9 27.4 7.1 39.3 12.2 26.6 11.4 51.6 31.6 70.6 57.3 13.8 18.5 20.4 48.7 14.9 68.5-3.5 12.9-8.9 19.9-20.6 27.2-4.2 2.7-8.1 5.2-8.7 5.6-3.7 3-95.4 61.2-140.1 88.8-5.7 3.6-22 13.8-36.2 22.7-14.1 8.8-42.1 26-62.2 38-36.6 22-67.7 41.2-78 48.2-3 2.1-6 4.1-6.7 4.5-.9.5-1.2-1.7-1.1-8.6.1-8.4-.8-25.2-1.6-29.6-.2-.9-.7-4.2-1-7.3-.4-3.1-.9-6.7-1.1-8-1.3-6.6-3.6-23.9-4.3-31.6-1.4-16.6-.6-65 1.2-75 .2-1 .7-4.5 1-7.8 1-8.4 1.7-12.8 2.1-14.5.2-.8.7-3 1-4.8 2.3-14.2 4.3-21.5 10-38 5.5-15.4 4.8-13.8 12.5-29.5 5.3-10.6 19.5-33.8 21.9-35.7.4-.3 2.7-3.2 5.3-6.5 7.2-9.4 20.2-23.4 30.9-33 28.7-25.9 61.6-42.4 91.9-46 3-.4 5.6-.8 5.8-1 .8-.7 32.5.4 39.7 1.4zm-186.1 46.4c-2.2 2.4-4.6 5.3-5.6 6.4-21.1 26.4-34.1 48.4-45.2 76.5-3.8 9.7-9.9 28.8-11.1 34.7-.2.9-1.4 7-2.8 13.6s-3.1 15.6-3.7 20c-.6 4.4-1.3 9.1-1.5 10.5-.4 2.5-1.3 11.7-2.1 20-.4 5-.4 40.3 0 46.5.4 4.9 1.5 18.3 2.2 25 .5 5.6 3.3 27.6 3.9 31.5.2 1.4.7 5.2 1 8.5.4 3.3.8 7.6 1.1 9.5.8 6.6.6 24.5-.5 31-1.7 10.4-1.9 11-4.9 17.4-5.7 12.1-13.4 17-27.2 17-7.5.1-9.2-.3-14.3-2.9-9.5-4.7-17.9-13.3-25.1-25.4-7.2-12.2-12-21.9-17.1-34.5-3.2-8-9.1-26.7-10.1-32.1-.2-1.1-.6-3.1-.9-4.5-.3-1.4-.8-4.3-1.1-6.5-.3-2.2-.8-4.3-1-4.6-1.7-2.8-2.5-39-1.2-52.4 2-20.1 10.8-52.3 19.6-72 21.5-48.1 50.3-80.2 98.2-109.7 5.8-3.5 11.2-6.8 12-7.2.8-.4 2.4-1.2 3.5-1.9 4.6-2.9 36.2-18.7 37.4-18.7.2 0-1.4 1.9-3.5 4.3z"/></svg>