<?xml version="1.0" encoding="utf-8"?>
<!-- Generator: Adobe Illustrator 22.0.0, SVG Export Plug-In . SVG Version: 6.00 Build 0)  -->
<svg version="1.1" id="Layer_1" xmlns="http://www.w3.org/2000/svg" xmlns:xlink="http://www.w3.org/1999/xlink" x="0px" y="0px"
	 viewBox="0 0 142.5 142.5" style="enable-background:new 0 0 142.5 142.5;" xml:space="preserve">
<style type="text/css">
	.st0{display:none;}
	.st1{display:inline;fill:#DD4839;}
	.st2{display:inline;}
	.st3{fill:#FFFBDE;}
	.st4{fill:#DD4839;}
	.st5{display:inline;fill:#FFFBDE;}
	.st6{fill:#FFFBB4;}
	.st7{opacity:0.75;}
	.st8{fill:#961202;}
	.st9{fill:#E25B50;}
</style>
<g id="Layer_4_copy_2" class="st0">
	<title>dnicon</title>
	<rect class="st1" width="142.5" height="142.5"/>
	<g id="g4224_2_" transform="matrix(1.2075 0 0 1.2075 24.066 22.516)" class="st2">
		<path class="st3" d="M12.1,82.1c-0.8,0.2-1.3,0.4-2.1,0.5l0,0c-0.9,0.1-1.5-0.1-2.1-0.2l0,0l0,0C5.3,81.9,3,80.2,1.2,78l0,0
			c-1.9-2.2-3.7-5.2-5-8.6l0,0l0,0c0,0,0,0,0-0.1l0,0c-1.4-3.7-5.3-13.6-2.7-26.7l0,0C-4.9,34.9-1.3,27.7,4,21.8l0,0v-0.1l0,0
			C11.4,14,21.6,9.1,30,5.9l0,0c2.6-1,7.1-2.4,7.1-2.4c6.6-1.8,9.8-2,14.3-2.1l0,0c4.3-0.1,7.9,0.3,11.7,1.4l0,0
			c2.4,0.7,5.5,1.9,7.6,2.9l0,0c0.7,0.3,1.3,0.6,1.9,1l0,0c0.1,0.1,0.2,0.1,0.3,0.2l0,0l0,0l0,0C73.1,7,73.2,7,73.3,7.1l0,0
			c0.2,0.1,0.4,0.2,0.6,0.4l0,0c0.4,0.3,0.8,0.6,1.3,0.9l0,0c0.9,0.7,2,1.6,3.1,2.6l0,0c3.4,3.1,5.9,6.9,7.6,11.3l0,0
			c0.2,0.4,0.3,0.9,0.5,1.3l0,0c0.6,1.8,0.8,3.4,0.9,5.6l0,0c0,1.3,0,2.1-0.1,3l0,0c-0.3,4.9-5.7,8.2-5.7,8.2
			c-0.6,0.5-1.7,1.2-3.5,2.2l0,0c-1.7,1-4,2.4-6.7,4l0,0c-5.4,3.2-12.7,7.5-21,12.4l0,0c-14.5,8.5-21.2,12.6-28,17.1l0,0
			c-2.9,1.9-4.7,3.1-6,3.9l0,0c-1.3,0.8-2.2,1.3-3.1,1.6l0,0C12.9,81.9,12.5,82,12.1,82.1L12.1,82.1z M8.9,76.7L8.9,76.7
			c0.3,0.1,0.6,0.1,0.6,0.1s0.2,0.4,0.3,0.4L9,77.1c0.2,0,1.2,0.2,1.6,0.1h0.5c0.3-0.1,0.2-0.2,0.4-0.3l1-0.3c0.4-0.1,0.4-0.2,1.6-1
			l0.5-0.9c1.2-0.7,1.8-1.6,4.7-3.6l0,0c6.9-4.7,13.7-8.8,28.3-17.3l0,0C59.9,46.7,70,40.7,75,37.6l0,0c1.6-1,2.8-1.8,3.1-2l0,0
			c1.8-1.3,1.7-1,2.8-2.4l0.8-0.9c0.3-0.6,0.3-0.5,0.4-0.7l0.5-0.8c0-0.2,0.2-0.3,0.2-1.6l0.1-1.4c-0.1-2.2,0.2-2.6-0.3-4l-0.1-0.3
			c-0.1-0.4-0.1-0.5-0.2-0.9l-0.7-1.5c-1.4-3.6-2.6-5-5.3-7.4l0,0c-0.8-0.7-1.6-1.4-2.3-1.9l0,0c-0.6-0.5-1.1-0.8-1.3-1l0,0l0,0l0,0
			c-0.2-0.1-0.3-0.1-0.4-0.1l0,0c-0.2-0.1-0.3-0.2-0.4-0.2l0,0c-0.3-0.2-0.5-0.3-0.8-0.5l0,0c0,0-0.5-0.3-1-0.6l0,0
			c-0.6-0.3-1.3-0.6-2.1-0.9l0,0c-1.5-0.6-3.3-1.3-4.6-1.6l0,0c-3.3-0.9-6.1-1.3-9.9-1.2l0,0c-4.5,0.1-10,1.7-13.1,2.9l0,0
			c-0.2,0.1-0.5,0.2-0.7,0.3l0,0L39.2,9H39c-2,0.6-4.4,1.4-6.9,2.4l0,0c-8,3-17.5,7.7-23.8,14.4l0,0C3.6,31,0.3,37.4-1.1,44l0,0
			C-2.2,47.5-4.5,59.6,4,72.8C4,72.8,6.2,75.9,8.9,76.7L8.9,76.7L8.9,76.7L8.9,76.7z M8.9,76.7L8.9,76.7L8.9,76.7L8.9,76.7z"/>
		<path class="st3" d="M7.8,82.4c-3.9-0.9-5.5-3.2-6-3.9l-0.3-1c-0.1-0.1,3.6-2.7,3.6-2.7l0.3-0.3l0,0l0,0l0,0l0,0
			c0,0,0.1,0.1,0.2,0.2l0,0c0.2,0.2,0.5,0.4,0.8,0.7l0,0c0.3,0.2,2,1.2,3.5,1.2c2.5-0.2,3.4-1.3,3.4-1.3c1.8-2,1.9-3.8,2.1-5.7l0,0
			c0.2-1.9,0-4-0.3-6.4l0,0c-0.3-2.4-1.3-8.9-1.3-14.6c0-5.8,1-10.8,1.5-12.8c1.1-5.3,3.2-10.8,6.3-15.5l0,0
			c4.9-7.6,12.2-14.6,21.1-18l0,0c0.5-0.2,1.4-0.5,1.4-0.5c7.8-2.5,16.8-2,24,0.8l0,0C74.6,5,80.2,9.7,84,15.4l0,0
			c0.9,1.3,5.8,10.4,2.7,19.1l0,0c-0.4,0.9-1.1,1.9-2.1,2.5l0,0c-22.2,14.6-43,26.7-63.7,40.8l0,0c-1.5,1-4.2,3-7.2,4.2l0,0
			C12,82.6,10,83.2,7.8,82.4L7.8,82.4z M9.3,76.8L9.3,76.8 M26.5,23.4c-2.5,3.8-4.5,9-5.5,13.8c-0.8,3.9-1.9,13.4-0.6,21.4l0,0
			c0.6,3.7,1.3,7.6,0.9,11.6l0,0c0,0.1,0,0.3-0.1,0.4l0,0c19.8-13.3,36.6-23,57.4-36.7c0,0,4.1-2.8,2.2-10.3c0,0-0.9-3.1-1.8-4.3
			l0,0c-3.2-4.7-7.9-8.7-13.1-10.8l0,0c-6.3-2.4-13.9-3.3-20-1.3l0,0c-0.4,0.1-0.8,0.3-1.2,0.4l0,0c0,0,0,0-0.1,0l0,0
			C37.4,10.4,30.8,16.6,26.5,23.4L26.5,23.4z"/>
	</g>
</g>
<g id="Layer_4_copy_3">
	<title>dnicon</title>
	<rect class="st4" width="142.5" height="142.5"/>
	<g id="g4224_1_" transform="matrix(1.2075 0 0 1.2075 24.066 22.516)" class="st0">
		<path class="st5" d="M12.1,82.1c-0.8,0.2-1.3,0.4-2.1,0.5l0,0c-0.9,0.1-1.5-0.1-2.1-0.2l0,0l0,0C5.3,81.9,3,80.2,1.2,78l0,0
			c-1.9-2.2-3.7-5.2-5-8.6l0,0l0,0c0,0,0,0,0-0.1l0,0c-1.4-3.7-5.3-13.6-2.7-26.7l0,0C-4.9,34.9-1.3,27.7,4,21.8l0,0v-0.1l0,0
			C11.4,14,21.6,9.1,30,5.9l0,0c2.6-1,7.1-2.4,7.1-2.4c6.6-1.8,9.8-2,14.3-2.1l0,0c4.3-0.1,7.9,0.3,11.7,1.4l0,0
			c2.4,0.7,5.5,1.9,7.6,2.9l0,0c0.7,0.3,1.3,0.6,1.9,1l0,0c0.1,0.1,0.2,0.1,0.3,0.2l0,0l0,0l0,0C73.1,7,73.2,7,73.3,7.1l0,0
			c0.2,0.1,0.4,0.2,0.6,0.4l0,0c0.4,0.3,0.8,0.6,1.3,0.9l0,0c0.9,0.7,2,1.6,3.1,2.6l0,0c3.4,3.1,5.9,6.9,7.6,11.3l0,0
			c0.2,0.4,0.3,0.9,0.5,1.3l0,0c0.6,1.8,0.8,3.4,0.9,5.6l0,0c0,1.3,0,2.1-0.1,3l0,0c-0.3,4.9-5.7,8.2-5.7,8.2
			c-0.6,0.5-1.7,1.2-3.5,2.2l0,0c-1.7,1-4,2.4-6.7,4l0,0c-5.4,3.2-12.7,7.5-21,12.4l0,0c-14.5,8.5-21.2,12.6-28,17.1l0,0
			c-2.9,1.9-4.7,3.1-6,3.9l0,0c-1.3,0.8-2.2,1.3-3.1,1.6l0,0C12.9,81.9,12.5,82,12.1,82.1L12.1,82.1z M8.9,76.7L8.9,76.7
			c0.3,0.1,0.6,0.1,0.6,0.1s0.2,0.4,0.3,0.4L9,77.1c0.2,0,1.2,0.2,1.6,0.1h0.5c0.3-0.1,0.2-0.2,0.4-0.3l1-0.3c0.4-0.1,0.4-0.2,1.6-1
			l0.5-0.9c1.2-0.7,1.8-1.6,4.7-3.6l0,0c6.9-4.7,13.7-8.8,28.3-17.3l0,0C59.9,46.7,70,40.7,75,37.6l0,0c1.6-1,2.8-1.8,3.1-2l0,0
			c1.8-1.3,1.7-1,2.8-2.4l0.8-0.9c0.3-0.6,0.3-0.5,0.4-0.7l0.5-0.8c0-0.2,0.2-0.3,0.2-1.6l0.1-1.4c-0.1-2.2,0.2-2.6-0.3-4l-0.1-0.3
			c-0.1-0.4-0.1-0.5-0.2-0.9l-0.7-1.5c-1.4-3.6-2.6-5-5.3-7.4l0,0c-0.8-0.7-1.6-1.4-2.3-1.9l0,0c-0.6-0.5-1.1-0.8-1.3-1l0,0l0,0l0,0
			c-0.2-0.1-0.3-0.1-0.4-0.1l0,0c-0.2-0.1-0.3-0.2-0.4-0.2l0,0c-0.3-0.2-0.5-0.3-0.8-0.5l0,0c0,0-0.5-0.3-1-0.6l0,0
			c-0.6-0.3-1.3-0.6-2.1-0.9l0,0c-1.5-0.6-3.3-1.3-4.6-1.6l0,0c-3.3-0.9-6.1-1.3-9.9-1.2l0,0c-4.5,0.1-10,1.7-13.1,2.9l0,0
			c-0.2,0.1-0.5,0.2-0.7,0.3l0,0L39.2,9H39c-2,0.6-4.4,1.4-6.9,2.4l0,0c-8,3-17.5,7.7-23.8,14.4l0,0C3.6,31,0.3,37.4-1.1,44l0,0
			C-2.2,47.5-4.5,59.6,4,72.8C4,72.8,6.2,75.9,8.9,76.7L8.9,76.7L8.9,76.7L8.9,76.7z M8.9,76.7L8.9,76.7L8.9,76.7L8.9,76.7z"/>
		<path class="st5" d="M7.8,82.4c-3.9-0.9-5.5-3.2-6-3.9l-0.3-1c-0.1-0.1,3.6-2.7,3.6-2.7l0.3-0.3l0,0l0,0l0,0l0,0
			c0,0,0.1,0.1,0.2,0.2l0,0c0.2,0.2,0.5,0.4,0.8,0.7l0,0c0.3,0.2,2,1.2,3.5,1.2c2.5-0.2,3.4-1.3,3.4-1.3c1.8-2,1.9-3.8,2.1-5.7l0,0
			c0.2-1.9,0-4-0.3-6.4l0,0c-0.3-2.4-1.3-8.9-1.3-14.6c0-5.8,1-10.8,1.5-12.8c1.1-5.3,3.2-10.8,6.3-15.5l0,0
			c4.9-7.6,12.2-14.6,21.1-18l0,0c0.5-0.2,1.4-0.5,1.4-0.5c7.8-2.5,16.8-2,24,0.8l0,0C74.6,5,80.2,9.7,84,15.4l0,0
			c0.9,1.3,5.8,10.4,2.7,19.1l0,0c-0.4,0.9-1.1,1.9-2.1,2.5l0,0c-22.2,14.6-43,26.7-63.7,40.8l0,0c-1.5,1-4.2,3-7.2,4.2l0,0
			C12,82.6,10,83.2,7.8,82.4L7.8,82.4z M9.3,76.8L9.3,76.8 M26.5,23.4c-2.5,3.8-4.5,9-5.5,13.8c-0.8,3.9-1.9,13.4-0.6,21.4l0,0
			c0.6,3.7,1.3,7.6,0.9,11.6l0,0c0,0.1,0,0.3-0.1,0.4l0,0c19.8-13.3,36.6-23,57.4-36.7c0,0,4.1-2.8,2.2-10.3c0,0-0.9-3.1-1.8-4.3
			l0,0c-3.2-4.7-7.9-8.7-13.1-10.8l0,0c-6.3-2.4-13.9-3.3-20-1.3l0,0c-0.4,0.1-0.8,0.3-1.2,0.4l0,0c0,0,0,0-0.1,0l0,0
			C37.4,10.4,30.8,16.6,26.5,23.4L26.5,23.4z"/>
	</g>
	<path class="st6" d="M38.1,121.9c-0.9,0.3-1.7,0.5-2.6,0.5l0,0c-0.9,0-1.7-0.1-2.5-0.3l0,0c-3.3-0.8-6.2-2.8-8.2-5.5l0,0
		c-2.6-3.2-4.7-6.8-6.1-10.7l0,0v-0.1l0,0c-4.2-10.5-5.3-22-3.1-33.1l0,0c2.1-9.5,6.6-18.4,13-25.6l0,0l0.1-0.1l0,0
		c9.1-9.4,21.6-15.4,31.9-19.2l0,0c3.2-1.2,8.7-2.9,8.7-2.9c5.7-1.6,11.6-2.5,17.5-2.5l0,0c4.8-0.2,9.7,0.5,14.3,1.8l0,0
		c3.2,1,6.3,2.2,9.3,3.7l0,0c0.8,0.4,1.6,0.8,2.3,1.3l0,0l0.4,0.2l0,0l0,0l0,0c0.2,0.1,0.4,0.2,0.6,0.3l0,0c0.3,0.1,0.5,0.3,0.8,0.5
		l0,0c0.5,0.3,1,0.7,1.6,1.1l0,0c1.1,0.9,2.5,2,3.8,3.2l0,0c4.2,3.9,7.3,8.7,9.3,14l0,0c0.2,0.6,0.4,1.1,0.6,1.7l0,0
		c0.7,2.2,1.1,4.6,1,7l0,0c0.1,1.2,0,2.5-0.1,3.7l0,0c-0.4,6.1-7,10.1-7,10.1c-0.8,0.6-2.2,1.4-4.3,2.7l0,0
		c-2.1,1.3-4.9,2.9-8.2,4.9l0,0c-6.7,4-15.6,9.2-25.8,15.1l0,0C67.5,104,59.4,109,51,114.5l0,0c-3.6,2.4-5.7,3.8-7.3,4.8l0,0
		c-1.2,0.8-2.5,1.5-3.8,2l0,0C39,121.6,38.5,121.8,38.1,121.9L38.1,121.9z"/>
	<path class="st4" d="M34.2,115.1L34.2,115.1l0.8,0.2c0,0,0.3,0.5,0.4,0.5l-1.1-0.1c0.6,0.1,1.3,0.1,1.9,0.1h0.6
		c0.4-0.1,0.3-0.2,0.5-0.3l1.2-0.3c0.7-0.3,1.3-0.7,2-1.2l0.6-1.1c1.4-0.9,2.2-2,5.8-4.3l0,0c8.5-5.7,16.9-10.7,34.8-21.1l0,0
		c15.3-8.8,27.7-16.1,33.9-19.9l0,0c2-1.2,3.4-2.2,3.8-2.4l0,0c2.2-1.7,2.1-1.2,3.5-3l1-1.1c0.4-0.8,0.4-0.6,0.5-0.8l0.6-1
		c0.2-0.6,0.3-1.3,0.3-1.9l0.1-1.7c-0.1-2.7,0.2-3.1-0.3-5l-0.2-0.3c-0.1-0.5-0.2-0.6-0.3-1.1l-0.9-1.9c-1.6-4.5-3.2-6.2-6.5-9.2
		l0,0c-0.9-0.8-1.9-1.7-2.8-2.4l0,0c-0.7-0.6-1.3-1-1.6-1.2l0,0l0,0l0,0c-0.2,0-0.3-0.1-0.4-0.2l0,0c-0.2-0.1-0.4-0.2-0.5-0.3l0,0
		c-0.3-0.2-0.7-0.4-1-0.7l0,0c-0.4-0.3-0.8-0.5-1.2-0.7l0,0c-0.7-0.3-1.6-0.7-2.5-1.2l0,0c-1.9-0.8-4.1-1.6-5.7-2.1l0,0
		c-4-1.2-8.1-1.7-12.3-1.4l0,0c-5.5,0.3-10.9,1.4-16.1,3.4l0,0c-0.3,0.1-0.6,0.2-0.9,0.4l0,0L72,31.9L71.8,32
		c-2.5,0.8-5.4,1.7-8.5,2.8l0,0c-9.8,3.6-21.5,9.3-29.3,17.5l0,0c-5.7,6.4-9.7,14.1-11.6,22.5l0,0c-1.3,4.3-4.2,19.3,6.1,35.7
		C28.1,110.3,30.8,114.2,34.2,115.1L34.2,115.1L34.2,115.1z"/>
	<path class="st6" d="M36.2,110.3c-1.3,0-2.5-0.3-3.7-0.8l0,0c-1.3-0.6-2.2-1.6-2.7-2.9l0,0c-0.2-0.4-0.3-0.9-0.3-1.4l0,0l-0.1-0.7
		l0.5-0.6l0.3-0.4l0,0c0.2-0.3,0.5-0.6,0.8-1l0,0c0.6-0.9,1.2-1.8,1.6-2.8l0,0c0.1-0.2,0.1-0.4,0.2-0.5l0,0c-0.5,0-0.9,0-1.4-0.1
		l0,0c-0.7-0.1-1.4-0.5-1.9-1l0,0c-0.3-0.3-0.5-0.6-0.6-1l0,0c-0.2-0.5-0.2-1.1-0.2-1.6l0,0c0-0.2,0-0.4,0-0.5l0,0
		c-0.4-0.2-0.8-0.4-1.2-0.6l0,0c-0.9-0.3-1.9-0.6-2.8-1l0,0c-0.8-0.4-1.5-1.1-1.8-2l0,0c-0.1-0.4-0.2-0.8-0.2-1.2l0,0
		c0-0.9,0.5-1.8,1.2-2.3l0,0c0.5-0.4,1-0.7,1.6-0.9l0,0c0.7-0.2,1.3-0.5,1.9-0.9l0,0c0.3-0.4,0.7-0.8,0.9-1.3l0,0
		c0.1-0.1,0.1-0.3,0.2-0.4l0,0c-0.1-0.1-0.2-0.2-0.4-0.3l0,0c-0.8-0.5-1.4-1.2-1.8-2l0,0c-0.1-0.3-0.2-0.6-0.2-0.9l0,0
		c0-0.9,0.4-1.8,1.2-2.4l0,0c0.4-0.3,0.7-0.6,0.8-0.8l0,0c-0.3-0.5-0.6-1-0.8-1.5l0,0c-0.2-0.5-0.3-1.1-0.2-1.6l0,0
		c0.3-1.4,1.1-2.6,2.2-3.5l0,0c0.5-0.4,1-0.9,1.3-1.5l0,0l0,0l0,0c0-0.1-0.1-0.3-0.1-0.4l0,0c-0.1-0.2-0.2-0.5-0.3-0.8l0,0
		c-0.3-0.7-0.4-1.4-0.3-2.2l0,0c0.1-1.5,0.8-2.9,1.9-3.9l0,0c0.4-0.3,0.8-0.5,1.2-0.7l0,0c1.1-0.3,2.2-0.4,3.3-0.3l0,0
		c0.6,0.1,1.3,0,1.9-0.1l0,0c-0.2-0.5-0.3-1-0.3-1.5l0,0c-0.1-0.9-0.3-1.8-0.6-2.7l0,0c-0.4-1.2-0.5-2.5-0.5-3.7l0,0
		c0.1-1,0.5-2,1.3-2.7l0,0c2-2,4.4-3.4,7-4.3l0,0c1.7-0.6,3.5-1.1,5.4-1.4l0,0c0.8-0.1,2-0.2,2-0.2l0,0l4.4-0.4L54,48l-0.2,0.2l0,0
		l-0.5,0.6l0,0c-0.4,0.6-1.1,1.5-1.8,2.6l0,0c-2.1,3.3-3.8,6.9-5.1,10.6l0,0c-3.4,9.3-6,23-2.5,40.7l0,0l0.2,1.2l-1.1,0.6
		c-0.3,0.2-0.6,0.5-0.8,0.9l0,0c-0.4,0.7-0.9,1.4-1.5,1.9l0,0c-0.9,1.1-2,2-3.3,2.6l0,0C37.1,110.3,36.6,110.3,36.2,110.3
		L36.2,110.3z M34,106.2c0.7,0.3,1.5,0.5,2.3,0.5l0,0h0.1l0,0c0.8-0.6,1.5-1.2,2.2-2l0,0c0.3-0.4,0.6-0.8,0.9-1.3l0,0
		c0.2-0.3,4.4-2.4,4.7-2.8L44,97.7c-5.1-27.4,2.3-41.4,6.9-48.8l-2.2,0.3c-0.8,0.2-1.7,0.4-2.5,0.7l0,0c-2.1,0.7-4.1,1.9-5.7,3.5
		l0,0c-0.2,0.2-0.3,0.4-0.3,0.7l0,0c0,0.5,0,0.9,0.1,1.4l0,0c0.4,1.5,0.8,3,0.9,4.5l0,0c0,0.2,0.1,0.4,0.2,0.6l0,0
		c0.1,0.5,0.2,1.1,0.2,1.6l0,0c-0.1,0.6-0.3,1.1-0.6,1.5l0,0c-0.4,0.5-1,0.9-1.6,1.1l0,0c-1,0.3-2.1,0.4-3.2,0.3l0,0
		c-0.7-0.1-1.4,0-2.1,0.2l0,0c-0.1,0-0.2,0.1-0.2,0.1l0,0c-0.4,0.4-0.6,1-0.6,1.6l0,0c0,0.2,0.1,0.3,0.1,0.5l0,0
		c0.1,0.2,0.2,0.5,0.3,0.8l0,0c0.3,0.8,0.4,1.7,0.3,2.5l0,0c-0.4,1.3-1.2,2.5-2.2,3.3l0,0c-0.4,0.4-0.8,0.9-1.1,1.4l0,0
		c0.3,0.5,0.6,1,0.9,1.6l0,0c0.2,0.5,0.3,1.1,0.2,1.6l0,0c-0.2,0.9-0.6,1.6-1.3,2.2l0,0L30,81.2l0,0l0,0l0,0c0.8,0.5,1.4,1.2,1.8,2
		l0,0c0.1,0.2,0.1,0.4,0.2,0.7l0,0c0.1,1-0.1,2-0.6,2.8l0,0c-0.4,0.6-0.8,1.3-1.3,1.8l0,0c-0.7,0.7-1.6,1.3-2.6,1.6l0,0
		c-0.3,0.1-0.6,0.2-0.8,0.3l0,0l0.9,0.3l0,0c1.2,0.4,2.7,0.7,3.9,2.3l0,0c0.1,0.2,0.3,0.4,0.4,0.7l0,0c0.2,0.6,0.3,1.2,0.2,1.8l0,0
		h0.1l0,0c0.7,0,1.4,0.1,2.1,0.2l0,0c0.8,0.2,1.5,0.8,1.8,1.6l0,0v0.1c0.3,1.1,0.2,2.2-0.2,3.2l0,0c-0.4,0.9-0.8,1.8-1.3,2.6l0,0
		c-0.5,0.8-1,1.5-1.5,2.2l0,0c0.2,0.3,0.5,0.6,0.8,0.7L34,106.2z"/>
	
		<image style="display:none;overflow:visible;opacity:0.75;enable-background:new    ;" width="154" height="120" xlink:href="32AFA5D7568F520D.png"  transform="matrix(0.9669 -0.2659 0.2688 0.9774 -9.8949 34.9469)">
	</image>
	<path class="st6" d="M32.8,122.2c-2.9-0.7-5.6-2.4-7.4-4.9l-0.3-1.3c-0.1-0.1,4.4-3.3,4.4-3.3l0.4-0.4l0,0l0,0l0,0l0.2,0.2l0,0
		c0.3,0.3,0.7,0.5,1,0.8l0,0c1.3,0.9,2.7,1.4,4.3,1.5c3-0.2,4.2-1.5,4.2-1.5c2.2-2.4,2.3-4.7,2.6-7l0,0c0.2-2.6,0.1-5.3-0.3-7.9l0,0
		c-0.9-6-1.4-12-1.5-18.1c0.1-5.3,0.7-10.7,1.9-15.9c1.4-6.8,4-13.3,7.8-19.1l0,0c6.1-9.3,15-17.9,25.9-22l0,0
		c0.6-0.2,1.7-0.6,1.7-0.6c9.7-2.9,20-2.5,29.5,1.3l0,0c7.9,3.3,14.6,9,19.4,16.2l0,0c1.1,1.6,7.1,12.9,3.2,23.7l0,0
		c-0.5,1.3-1.4,2.3-2.6,3.1l0,0c-27.3,17.8-52.9,32.5-78.4,49.7l0,0c-2.8,2-5.7,3.7-8.9,5.1l0,0C37.6,122.8,35.1,122.9,32.8,122.2
		L32.8,122.2z"/>
	<path class="st6" d="M56,49.4c-3.3,5.2-5.6,11-6.9,17c-1,4.8-2.4,16.5-0.9,26.5l0,0c0.7,4.6,1.5,9.5,1,14.4l0,0
		c0,0.2,0,0.3-0.1,0.5l0,0c24.3-16.2,45.1-28,70.7-44.7c0,0,5.1-3.4,2.8-12.8c-0.5-1.9-1.3-3.6-2.2-5.3l0,0c-3.9-6-9.5-10.7-16-13.5
		l0,0c-7.7-3.1-16.9-4.4-24.4-1.9l0,0l-1.4,0.5h-0.1C69.5,33.5,61.4,41.1,56,49.4L56,49.4z"/>
	<g class="st7">
		<path class="st8" d="M56,49.4c-3.3,5.2-5.6,11-6.9,17c-1,4.8-2.4,16.5-0.9,26.5l0,0c0.7,4.6,1.5,9.5,1,14.4l0,0
			c0,0.2,0,0.3-0.1,0.5l0,0c24.3-16.2,45.1-28,70.7-44.7c0,0,5.1-3.4,2.8-12.8c-0.5-1.9-1.3-3.6-2.2-5.3l0,0
			c-3.9-6-9.5-10.7-16-13.5l0,0c-7.7-3.1-16.9-4.4-24.4-1.9l0,0l-1.4,0.5h-0.1C69.5,33.5,61.4,41.1,56,49.4L56,49.4z"/>
	</g>
	<path class="st9" d="M56,49.4c-3.3,5.2-5.6,11-6.9,17c-1,4.8-2.4,16.5-0.9,26.5l0,0c0.7,4.6,1.5,9.5,1,14.4l0,0
		c0,0.2,0,0.3-0.1,0.5l0,0c24.3-16.2,45.1-28,70.7-44.7c0,0,5.1-3.4,2.8-12.8c-0.5-1.9-1.3-3.6-2.2-5.3l0,0c-3.9-6-9.5-10.7-16-13.5
		l0,0c-7.7-3.1-16.9-4.4-24.4-1.9l0,0l-1.4,0.5h-0.1C69.5,33.5,61.4,41.1,56,49.4L56,49.4z"/>
</g>
</svg>
